<?xml version="1.0" standalone="no"?>
<!DOCTYPE svg PUBLIC "-//W3C//DTD SVG 20010904//EN"
 "http://www.w3.org/TR/2001/REC-SVG-20010904/DTD/svg10.dtd">
<svg version="1.0" xmlns="http://www.w3.org/2000/svg"
 width="1200.000000pt" height="1200.000000pt" viewBox="0 0 1200.000000 1200.000000"
 preserveAspectRatio="xMidYMid meet">

<g transform="translate(0.000000,1200.000000) scale(0.100000,-0.100000)"
fill="#000000" stroke="none">
<path d="M5150 11750 c-1042 -46 -1957 -404 -2700 -1055 -244 -214 -504 -503
-707 -786 -265 -369 -518 -870 -667 -1321 -131 -396 -208 -807 -218 -1166 l-3
-104 135 -49 c274 -100 554 -229 757 -349 l91 -55 -61 -32 c-210 -111 -342
-316 -404 -628 -14 -71 -18 -139 -18 -325 1 -254 11 -353 65 -621 89 -438 287
-968 508 -1364 l77 -138 -22 -130 c-35 -212 -46 -393 -40 -665 5 -264 20 -407
67 -642 127 -635 439 -1218 852 -1588 357 -321 752 -482 1183 -484 280 -1 491
47 746 168 l97 46 52 87 c28 47 83 149 121 227 585 1198 503 2840 -197 3890
-238 358 -516 610 -846 769 l-115 55 -110 153 c-557 771 -876 1318 -1058 1815
-34 94 -37 109 -31 170 19 210 138 558 296 867 313 614 795 1214 1337 1668
856 715 1715 969 2458 725 117 -38 348 -151 455 -223 275 -184 557 -479 799
-835 214 -315 455 -766 682 -1276 95 -214 430 -987 435 -1004 3 -10 -25 -37
-82 -80 -102 -77 -220 -198 -282 -292 -25 -38 -46 -68 -48 -68 -1 0 -40 9 -86
20 -299 73 -626 0 -915 -203 -115 -81 -310 -275 -407 -407 -317 -427 -513
-965 -603 -1655 -15 -115 -18 -209 -18 -520 0 -418 10 -527 75 -859 205 -1046
783 -1808 1460 -1927 104 -18 287 -15 390 6 616 126 1139 768 1381 1695 32
124 33 125 89 180 223 217 350 654 350 1201 l0 157 58 43 c162 121 270 240
371 411 158 264 234 559 234 903 0 476 -148 879 -430 1176 -232 244 -496 369
-830 394 -51 4 -93 10 -93 14 0 3 13 74 29 156 120 617 117 1285 -7 2008 l-27
153 -113 107 c-1151 1086 -2108 1499 -3652 1576 -289 15 -662 19 -860 11z
m4871 -4469 c307 -79 564 -355 695 -748 53 -159 74 -277 81 -458 11 -305 -49
-542 -189 -748 -37 -55 -167 -201 -174 -195 -1 2 -16 71 -33 153 -96 475 -267
858 -491 1098 -122 130 -279 217 -392 217 -38 0 -46 6 -153 118 -62 64 -158
151 -213 192 -73 55 -98 78 -91 87 16 18 177 126 249 166 119 66 282 120 425
141 59 9 211 -4 286 -23z m-7809 -730 c69 -29 87 -43 180 -139 187 -194 341
-417 515 -744 l96 -180 -34 -26 c-61 -47 -162 -144 -237 -226 -181 -200 -338
-477 -464 -823 -23 -62 -47 -113 -53 -113 -17 0 -78 69 -122 138 -215 335
-381 1118 -343 1615 12 160 22 214 57 319 30 89 82 163 138 196 58 34 162 27
267 -17z m6011 -561 c198 -61 371 -300 509 -700 71 -207 125 -451 157 -710 86
-689 22 -1341 -179 -1836 -69 -171 -175 -302 -294 -365 -114 -61 -254 -50
-370 30 -104 72 -195 188 -281 361 -353 704 -427 1859 -169 2650 68 211 138
344 233 443 126 132 249 172 394 127z"/>
<path d="M8038 5665 c-148 -100 -275 -465 -322 -923 -19 -177 -21 -578 -5
-752 44 -491 166 -934 317 -1156 52 -78 138 -158 185 -173 64 -21 103 -7 169
60 125 128 210 372 265 759 22 159 26 793 5 960 -34 273 -90 536 -157 731 -47
135 -145 339 -197 407 -80 107 -181 141 -260 87z"/>
<path d="M3940 5865 c-8 -2 -55 -9 -105 -15 -137 -19 -140 -23 -34 -49 259
-64 559 -218 791 -408 614 -504 1036 -1410 1127 -2423 58 -645 -28 -1374 -228
-1919 -17 -47 -29 -86 -27 -88 13 -13 230 301 316 457 156 283 284 646 344
980 66 363 74 820 20 1185 -111 758 -460 1434 -953 1847 -342 286 -750 441
-1146 437 -49 -1 -97 -3 -105 -4z"/>
</g>
</svg>
