<?xml version="1.0" standalone="no"?>
<!DOCTYPE svg PUBLIC "-//W3C//DTD SVG 20010904//EN"
 "http://www.w3.org/TR/2001/REC-SVG-20010904/DTD/svg10.dtd">
<svg version="1.0" xmlns="http://www.w3.org/2000/svg"
 width="820.000000pt" height="539.000000pt" viewBox="0 0 820.000000 539.000000"
 preserveAspectRatio="xMidYMid meet">
<metadata>
Created by potrace 1.16, written by Peter Selinger 2001-2019
</metadata>
<g transform="translate(0.000000,539.000000) scale(0.100000,-0.100000)"
fill="#000000" stroke="none">
<path d="M2100 5383 c-386 -39 -687 -182 -973 -462 -226 -221 -391 -460 -583
-844 -280 -558 -451 -1178 -516 -1872 -20 -211 -17 -837 5 -1035 63 -571 150
-831 338 -1004 142 -132 387 -196 579 -150 272 64 766 478 1316 1104 161 183
202 221 281 263 150 78 18 72 1525 75 1490 3 1423 5 1563 -61 97 -47 141 -87
306 -277 169 -195 568 -597 723 -729 222 -190 403 -310 539 -359 62 -23 88
-26 187 -26 177 1 298 41 423 139 99 79 197 231 246 384 46 141 99 449 121
706 6 66 13 228 17 360 21 855 -155 1703 -506 2430 -262 542 -542 897 -884
1119 -461 301 -1023 323 -1626 65 -144 -62 -231 -109 -389 -211 -139 -90 -204
-119 -329 -149 -79 -19 -111 -20 -392 -17 -304 4 -306 4 -391 32 -108 36 -143
54 -260 131 -414 275 -933 428 -1320 388z m3728 -921 c74 -24 162 -81 206
-136 152 -187 136 -441 -39 -605 -257 -240 -679 -95 -737 254 -36 218 114 443
329 494 67 16 177 12 241 -7z m-3375 -307 c31 -8 73 -21 92 -29 l35 -15 0
-275 0 -276 268 0 267 0 32 -58 c37 -66 63 -157 63 -217 0 -52 -34 -173 -65
-236 l-25 -49 -280 0 -280 0 -2 -272 -3 -272 -55 -28 c-150 -75 -365 -67 -476
17 l-34 26 0 264 0 265 -267 2 -268 3 -22 41 c-70 127 -73 329 -7 469 l19 40
280 5 280 5 3 278 2 278 37 16 c105 43 280 51 406 18z m4476 -344 c164 -51
283 -189 310 -358 33 -209 -101 -420 -307 -483 -197 -61 -412 23 -515 201
-125 217 -36 508 189 614 103 49 220 58 323 26z m-1124 -556 c207 -54 351
-254 332 -461 -32 -338 -409 -516 -694 -327 -138 91 -213 269 -184 432 46 257
297 421 546 356z"/>
</g>
</svg>
